<?xml version="1.0" encoding="utf-8"?>
<!-- Generator: Adobe Illustrator 23.0.5, SVG Export Plug-In . SVG Version: 6.00 Build 0)  -->
<svg version="1.1" id="Layer_1" xmlns="http://www.w3.org/2000/svg" xmlns:xlink="http://www.w3.org/1999/xlink" x="0px" y="0px"
	 viewBox="0 0 1136.6 643.2" style="enable-background:new 0 0 1136.6 643.2;" xml:space="preserve">
<style type="text/css">
	.st0{opacity:0.53;fill:#3C74F3;enable-background:new    ;}
	.st1{fill:#3C74F3;}
	.st2{fill:#444053;}
	.st3{fill:#FFFFFF;enable-background:new    ;}
	.st4{fill:#3F3D56;}
	.st5{opacity:0.8;fill:#FA5959;enable-background:new    ;}
	.st6{opacity:0.8;fill:#FED253;enable-background:new    ;}
	.st7{opacity:0.8;fill:#8CCF4D;enable-background:new    ;}
	.st8{fill:#C1D5FF;}
	.st9{fill:url(#svg_127_1_);}
	.st10{fill:#2D293D;}
	.st11{opacity:0.1;enable-background:new    ;}
	.st12{fill:#65617D;}
	.st13{opacity:5.000000e-02;enable-background:new    ;}
	.st14{opacity:5.000000e-02;}
	.st15{fill:#FFCDD3;}
	.st16{fill:#DCE6F2;}
	.st17{fill:#575988;}
	.st18{fill:#656691;}
	.st19{opacity:0.1;}
	.st20{fill:url(#svg_194_1_);}
	.st21{fill:#4C4981;}
	.st22{fill:#AE6E79;}
	.st23{fill:#FFFFFF;}
</style>
<title>status update</title>
<title>Layer 1</title>
<path id="svg_1" class="st0" d="M650.4,132.8c-70.8,0.5-138.7-15.4-203.7-33.3s-129.5-37.8-198.8-46c-44.6-5.3-95.4-4.5-130.5,16
	c-33.8,19.7-43.7,51.9-48.7,81.6c-3.7,22.4-5.5,45.9,7.5,66.2c9.1,14.1,24.7,25.7,35.7,39.2c38.3,46.8,14.5,107.1-23.4,155.5
	c-17.8,22.7-38.6,44.5-52.1,68.5s-19.2,51.1-5.8,74.6c13.3,23.3,43.5,40.1,76.1,51.5c66.1,23.1,143.2,27.7,218.2,29.2
	c166.1,3.2,332.7-6.6,498.8-16.5c61.5-3.7,123.2-7.3,183.5-17.2c33.5-5.5,67.9-13.4,91.8-30.6c30.2-21.8,36.7-57.1,15-82.3
	c-36.4-42.3-133-49.7-159-95.5c-14.3-25.2-1.6-54.4,17-78.9c39.9-52.6,108.3-100,109.9-158.6c1.1-40.3-34-79.3-86.7-96.4
	C940,41.8,864.4,47,825.4,81.4C785.2,116.6,712.9,132.3,650.4,132.8z"/>
<path id="svg_3" class="st1" d="M930.5,528.4c0,0,3.7,14.2-5.6,23.9c0,0-5.6-5.9,0-20.3L930.5,528.4z"/>
<path id="svg_4" class="st1" d="M945.8,514.7c0,0-0.9-12.1-28.3-8.1c0,0-0.1,7.8,9.5,11.5S941,518.7,945.8,514.7z"/>
<path id="svg_5" class="st1" d="M947.5,537.6c0,0,11.6,3.7,1.3,29.4c0,0-7.6-1.7-9-11.9S942.5,541.3,947.5,537.6z"/>
<path id="svg_6" class="st1" d="M963,520.4c0,0,1.6-19.9-26.4-17.9c0,0-2,18,21.5,22.7L963,520.4z"/>
<path id="svg_7" class="st1" d="M981.4,497.9c0,0-3.8-22.6-31.8-15.9c0,0-0.1,19.5,27.2,21.2L981.4,497.9z"/>
<path id="svg_8" class="st1" d="M994.9,474.7c0,0-6.4-22-34.1-15.4c0,0,6.6,19.8,32.3,19.5L994.9,474.7z"/>
<path id="svg_9" class="st1" d="M1007.8,452c0,0-6.3-22.8-33-16c0,0,8.9,21.7,31.2,19.9L1007.8,452z"/>
<path id="svg_10" class="st1" d="M1016,430.4c0,0-4.8-27.9-29.7-21.7c0,0,7.2,25.4,27.9,25.8L1016,430.4z"/>
<path id="svg_11" class="st1" d="M1023.8,404.3c0,0-5.8-28.1-31-20c0,0,9.9,26.6,29.2,23.9L1023.8,404.3z"/>
<path id="svg_12" class="st1" d="M1028.6,380c0,0-9.2-28.1-28.7-27.4c0,0,9.4,29.7,27,33L1028.6,380z"/>
<path id="svg_13" class="st1" d="M1031.6,356.4c0,0-10-33.9-25.9-31.3c0,0,6.9,25.9,25.3,36.5L1031.6,356.4z"/>
<path id="svg_14" class="st1" d="M1033.4,328.1c0,0-9.4-28.2-25-29.4c0,0,6.4,27.8,24.7,36.7L1033.4,328.1z"/>
<path id="svg_15" class="st1" d="M1035.2,301.8c0,0-11.7-28.3-22-28.9c0,0,5.1,27.8,21,33.5L1035.2,301.8z"/>
<path id="svg_16" class="st1" d="M1036.5,277.2c0,0-7.2-30.7-17.5-33.2c0,0,1.4,25.1,16.5,35.5L1036.5,277.2z"/>
<path id="svg_17" class="st1" d="M1040.4,245.1c0,0-7.6-24.5-15.9-28.2c0,0,1.7,28.8,14,34.2L1040.4,245.1z"/>
<path id="svg_18" class="st1" d="M1043.7,224.1l1.5-43.1c0,0-15.6,32.6-2.7,50.8L1043.7,224.1z"/>
<path id="svg_19" class="st1" d="M1055.8,181.2c0,0,11.3-31.5,14-33.3c0,0-22.1,20.4-19.9,46.7L1055.8,181.2z"/>
<path id="svg_20" class="st1" d="M963.7,520.3c0,0,19.8-2.6,19.2,25.4c0,0-17.9,2.9-23.8-20.3L963.7,520.3z"/>
<path id="svg_21" class="st1" d="M982.4,497.2c0,0,22.9-0.1,21,28.6c0,0-19.2,3.4-25.6-23.2L982.4,497.2z"/>
<path id="svg_22" class="st1" d="M995.2,476.5c0,0,20.8-9.8,34.1,15.4c0,0-19.2,8.1-35.9-11.4L995.2,476.5z"/>
<path id="svg_23" class="st1" d="M1008.2,452.2c0,0,21.3-10.4,33.8,14.2c0,0-22.2,7.6-35.5-10.3L1008.2,452.2z"/>
<path id="svg_24" class="st1" d="M1015.8,431c0,0,20.5-19.6,36.8,0.2c0,0-20.9,16.1-37.8,4.1L1015.8,431z"/>
<path id="svg_25" class="st1" d="M1022.6,403.6c0,0,20.6-20,36.8,0.9c0,0-23.1,16.4-37.6,3.3L1022.6,403.6z"/>
<path id="svg_26" class="st1" d="M1026.5,379.2c0,0,15.9-25,34.6-19.4c0,0-16.5,26.5-34.4,25.3L1026.5,379.2z"/>
<path id="svg_27" class="st1" d="M1031.2,356.2c0,0,16-31.5,31.1-26c0,0-11.5,24.2-31.5,31.3L1031.2,356.2z"/>
<path id="svg_28" class="st1" d="M1032.3,326.5c0,0,16.4-24.8,31.9-21.8c0,0-13.4,25.1-33.4,28.9L1032.3,326.5z"/>
<path id="svg_29" class="st1" d="M1033.5,301.2c0,0,12.8-27.8,23.1-28c0,0-6.1,27.6-22.3,32.7L1033.5,301.2z"/>
<path id="svg_30" class="st1" d="M1036,276.6c0,0,14.2-28.2,24.8-28.2c0,0-7.3,24.1-24.3,30.7L1036,276.6z"/>
<path id="svg_31" class="st1" d="M1038.2,246.9c0,0,10.6-23.3,19.4-25.9c0,0-5.3,28.4-18.2,32.1L1038.2,246.9z"/>
<path id="svg_32" class="st1" d="M1044.9,223.3l23.7-36.1c0,0-6.1,35.6-27.1,43L1044.9,223.3z"/>
<path id="svg_33" class="st1" d="M1061.2,184.1c0,0,27.5-19,28.5-22.1c0,0-14,26.6-40,31.3L1061.2,184.1z"/>
<path id="svg_34" class="st1" d="M1062.8,175.6c0,0,31.6-30.4,39.7-30.4c0,0-26.1,1.2-40.4,28.7L1062.8,175.6z"/>
<path id="svg_35" class="st2" d="M1038.5,251.4l1.2,0.1c5.9-46.5,14.6-74,24.4-77.4l-0.4-1.1
	C1053.3,176.7,1044.6,203.7,1038.5,251.4z"/>
<path id="svg_36" class="st2" d="M1029.7,362.5l1.7,0.1c0.4-4.3,0.6-8.8,0.8-13.2c1.7-38.5,4.2-73.8,7.6-100.3l-1-1.3
	c-3.4,26.5-6.7,63-8.3,101.5C1030.4,353.8,1030.1,358.2,1029.7,362.5z"/>
<path id="svg_37" class="st2" d="M896.5,573.1c0.3-0.1,30.9-13.8,62.7-46.4c18.6-19.1,34.1-41,45.8-65
	c14.7-29.9,23.7-66.7,26.7-102.4l-1.8,0.9c-6.7,80.2-43.3,135-72.3,164.9c-31.5,32.3-61.8,45.9-62.1,46L896.5,573.1z"/>
<path id="svg_38" class="st3" d="M969.9,31.2v518.4c0,15.4-14.9,28-33.2,28H233.3c-18.4,0-33.2-12.5-33.2-28V31.2
	C200,15.8,214.9,0,233.3,0l703.3,1.7C954.9,1.7,969.9,15.8,969.9,31.2z"/>
<path id="svg_39" class="st4" d="M969.9,31.4v24H200v-24C200,14,214.1,0,231.4,0l0,0h707.1C955.8,0,969.9,14,969.9,31.4z"/>
<circle id="svg_40" class="st5" cx="237.3" cy="27.7" r="11.1"/>
<circle id="svg_41" class="st6" cx="269.5" cy="27.7" r="11.1"/>
<circle id="svg_42" class="st7" cx="301.8" cy="27.7" r="11.1"/>
<g id="svg_43">
	<path id="svg_44" class="st8" d="M895,78.8v217.4c0,6.5-6.3,11.7-13.8,11.7H588.7c-7.6,0-13.8-5.2-13.8-11.7V78.8
		c0-6.5,6.1-13,13.8-13h292.5C888.9,65.7,895,72.2,895,78.8z"/>
</g>
<g id="svg_57">
	<path id="svg_58" class="st8" d="M338.6,98.1v220.1c0,6.5-6.4,11.8-14.1,11.8H26.8c-7.7,0-14.1-5.4-14.1-11.8V98.1
		c0-6.6,6.4-13.2,14.1-13.2h297.7C332.2,84.9,338.6,91.5,338.6,98.1z"/>
</g>
<linearGradient id="svg_127_1_" gradientUnits="userSpaceOnUse" x1="-3103.2461" y1="711.4185" x2="-3103.2461" y2="269.2985" gradientTransform="matrix(224.0093 -16.7817 8.6056 436.8408 696494.25 -24893.5449)">
	<stop  offset="0" style="stop-color:#808080;stop-opacity:0.25"/>
	<stop  offset="0.54" style="stop-color:#808080;stop-opacity:0.12"/>
	<stop  offset="1" style="stop-color:#808080;stop-opacity:0.1"/>
</linearGradient>
<path id="svg_127" class="st9" d="M925,721.2c-1.4-5-2.3-9.4-2.3-9.4s0.1-5.5-2.6-9.5v-1.4l0,0l-0.4-10.2c0.6-1.9,1.4-3.7,2.4-5.4
	c1.7-3.3-0.6-14.8-0.6-14.8s-7.4-16.2-6.2-26.7S899.6,598,899.6,598c0-3.5,0.3-6.9,1.1-10.3c0.1-0.7,0.2-1.4,0.1-2.2
	c0-0.1,0-0.2,0-0.3c0,0,0,0,0,0.1c-0.5-6.9-6.4-19.5-6.4-19.5l-0.2-24.6c0,0,2.9-14.6-3.5-33.9c-2.2-6.7-3.7-12.1-4.7-16.3
	c-0.1-0.5-0.2-0.9-0.3-1.4c11.6-2.2,20.4-4,20.4-4s-7.8-28-12.6-32.8s-9-20.2-9-20.2s-3.1-19.9,0.5-25.9s3.7-16.2,3.7-16.2
	s8.5-6.7,9.5-9.6s2.6-9.3,2.4-12.7c-0.2-3.4-1.3-6.3-1-8.1c0.3-1.8-2.9-8.4-1.5-11.6c0.3-1,0.5-2,0.5-3.1v-0.1
	c-0.1-2.8-0.5-5.5-1.1-8.3c-2.6-2-5.6-3.5-8.9-4.3l-0.2-0.8l-0.6-2c-0.3-0.2-0.6-0.3-0.9-0.5v-0.7l-0.2-2.9l1.1-6.5
	c2.3-11.3-12.8-12.4-12.8-12.4c-1-1.7-2.5-3-4.4-3.5c-3.1-1,0.1,16.9,1.6,18c1.1,0.8,4.6,6.3,6.3,9l0,0l0.3,0.4
	c-0.2,0.2-0.5,0.5-0.7,0.8l0.7,3.9l0.1,0.6c-0.9,1.3-1.7,2.7-2.2,4.2c0,0,2.8,2.9,2.4,6.3s1.1,7.5,1.2,7.7c-0.2-0.2-2.2-2.2-4.1-1.6
	c-1.9,0.6-7.2,2.4-7.2,2.4s-4,0.9-3.6,1.7S863,362,863,362l-11.2-9.8c-0.1-0.3-0.2-0.6-0.3-0.9c-0.5-1.4-0.9-2.9-1.1-4.5
	c1.2-0.3,2.3-0.7,3.4-1.2c1.1-0.4,2.1-1.1,2.9-2c1-1.3,1.2-3.1,1.6-4.7c0.7-3.2,2.5-6,3.7-9.1c2-5.1,2.5-10.7,1.5-16.1
	c-0.2-1.7-0.9-3.3-1.8-4.6c-1.9-2.4-5.1-3.2-7.5-5.1c-2.4-1.9-4-4.7-6.8-6.1c-2.5-1.2-5.5-1-8.2-0.4c-5.4,1.1-10.5,3.2-15.1,6.1
	c-1.5,1-3.2,2.1-5,1.9c-1.6-0.2-2.7-1.4-3.8-2.6v-0.1l-0.1-0.1c-1,2.6-1.5,5.4-1.4,8.1c0,0.4,0,0.9,0.1,1.3c0,0.1,0,0.3,0,0.5
	c0,0.1,0,0.3,0,0.4l0,0c0,0.2,0,0.4-0.1,0.6c-0.2,0.6-0.6,1.1-1,1.5c-0.3,0.4-0.6,0.8-0.8,1.2c0-0.1,0.1-0.3,0.1-0.5
	c-0.7,1-1,2.2-1,3.5c0,0.9,0.3,1.8,0.9,2.4c0.6,0.5,1.2,1,1.8,1.4c-0.2,1.2-0.2,2.4-0.2,3.6c0.3,7.3,4.4,13.9,10.9,17.4
	c0.1,0.3,0.3,0.6,0.4,0.9c1.5,3.6,2.7,7.8,2.4,11.7c0,0.3-0.1,0.6-0.1,0.9s-0.3,0.3-0.4,0.5l0,0c0,0-17.8,0.9-22.2-2.8
	c-4.4-3.7-10.2,9.7-10.2,9.7s-6.3,1.5-7.7,0.3c-1.4-1.2-8.8,0.2-8.8,0.2c-3.2-2.6-7.2-3.9-11.3-3.6c-2.6-1.8-5.4-3.2-8.4-4.2l0,0
	l-0.2-0.1l0,0c-1.3-0.4-2.7-0.5-4-0.4c0,0-9-6.9-11.8-10.7s-15.4-17.8-15.5-17.8l-0.1-0.7l-0.2-2.1c-0.4,0.1-0.7,0.1-1.1,0.1
	l-0.3-0.7c-0.8-2-1.7-4-2.8-5.8c0,0-0.1-2.7,0.7-3.4s-0.7-10.4-0.7-10.4s-8.6-18.2-15.2-4.1c0,0-13,9.4-1.4,19.4c0,0,4.6,2,5.3,3.7
	c0.5,1.1,2.1,4.2,3.2,6.2c0.2,0.3,0.3,0.6,0.5,0.9l-0.1,0.1l0.2,1.7l0.1,0.7c-2.1,1.3-3.5,2.5-3.1,3.4c0.7,1.5,1.2,3.1,1.5,4.7
	c0,0,16.3,18.9,18.6,27.1c0,0,42.6,23.2,56.4,24.4l-1.8,12.4c-0.2,3.4-0.3,6.7-0.2,10.1c0.3,2.7-1.1,14.7-1.1,14.7
	s-1.7,17.8-3.6,20.3s-1.2,13.1-1.2,13.1c-0.3,5.1-1,10.2-2.2,15.1c-1.8,6.8,0,15,0,15s-6.3,16.2,9.9,4.8c0,0,8.1-0.8,17.5-1.5
	c0,0.3,0,0.6,0,0.9c0,1.2,0.1,2.5,0.1,3.9c0.2,9.1,0.7,21.7,1.4,31.2c1.4,16.8,7.8,49.8,7.8,49.8l0.6,16.7c-0.3,1.6-0.4,3.2-0.3,4.8
	c0.1,5.9,1.9,11.7,5.1,16.6l1.7,11.1c0,0,3.3,7.2,3.5,11.6c0,0.4,0,0.7-0.1,1.1c-0.1,0.6-0.1,1.1-0.1,1.7c0,5.1,3.5,17,3.5,17
	s0.7,12.2,2.5,12.8c1.6,0.5-1.8,7.1-2.8,9c0-0.1-0.1-0.2-0.1-0.3c-0.1,0.3-0.2,0.4-0.2,0.4c-0.3,1-0.5,2.1-0.5,3.1
	c-0.1,1.7,0.7,3.4,2.2,4.2c3.5,2,5.5,3.7,2.6,4.5c-1.1,0.2-2.1,0.5-3.2,0.8c0-0.1-0.1-0.3-0.2-0.4c-0.8,0.4-1.3,1.3-1.1,2.2
	c0.1,1.4,0.5,2.9,1.3,4.1c3.2,6.4,5.3,8.8,5.3,8.8l1.4-0.2c-0.2,0.5-0.4,1.1-0.8,1.5c-0.5,0.8-1.2,1.4-2,1.9c-0.7,0.5-1.6,0.8-2.5,1
	c-2,0.1-3.9,1.1-5.1,2.7c-1.7,2.4-2.8,5.7,1,8.4l13.2,4c0,0,22.6,2.1,21.2-2.9s-2.3-9.4-2.3-9.4c0-3.1-0.8-6.1-2.2-8.9
	c-0.2-0.4-0.5-0.9-0.8-1.3l0.8-0.1c0,0,1.2-11.2,3.3-13.4c0.5-0.5,0.6-0.9,0.5-1.2c0.2-0.6-0.4-1-1.1-1.1c0,0.1-0.1,0.3-0.1,0.4
	c-0.7-0.1-1.5-0.2-2.2-0.2c0,0-1-5.8,1.3-8c0.4-0.5,0.5-1.1,0.4-1.8c0-0.8-0.1-1.6-0.3-2.4l-0.1,0.1c-1.4-5.3-5.8-13.5-5.8-13.5
	s-0.4-5.3,1-7.5s-1.3-28.8-1.3-28.8s0.1-12.9-1.8-18.9s1.5-13.2,1.5-13.2s0-0.1-0.1-0.4v-0.1c0,0-0.1-0.8-0.3-2v0.1
	c-0.5-3.4-1.4-9.6-2-12.4c-0.9-4-0.7-23.5-0.7-23.5l3-8.4l6.4,14.1l7,18.9c0,0,3.2,3.9,3.5,8c0,0.2,0,0.4,0,0.6c0,0.4,0,0.9,0,1.3
	c0,2.4,0.7,4.8,2.2,6.7c0,0,2,9,4.6,11.2c2.6,2.2,2.8,6.6,2.8,6.6s3.6,13,5.2,15.2c1.3,1.9,1.6,7.2,1.6,8.8l0,0c0,0.3,0,0.5,0,0.5
	s0.6,4.7,0.8,8.6c0,0.5,0,1,0,1.4v-0.1c0,1.1-0.1,2.1-0.3,3.2c0,0.1,0,0.1,0,0.2c0-0.2,0-0.5,0-0.7c-0.5,2.7-0.7,5.4-0.6,8.2
	c0.1,4.7,1,10.3,4,13.4c5.2,5.5,8.2,4.6,8.2,4.6s-2.1,7.2-5,8.7c-0.1,0.1-0.2,0.1-0.3,0.2c0-0.1-0.1-0.3-0.1-0.4
	c-0.6,0.7-0.9,1.7-0.8,2.7c-0.1,3.1,2.1,8.1,4,10.3c0.7,0.6,1.6,1.1,2.5,1.3c-0.1,0.1-0.3,0.2-0.4,0.3c-0.3,0.2-0.7,0.4-1,0.5
	c-0.5,0.2-1,0.4-1.5,0.4c-2,0.1-3.9,1.1-5.1,2.7c-1.7,2.4-2.8,5.7,1,8.4l13.2,4C903.9,724.3,926.4,726.2,925,721.2z"/>
<path id="svg_128" class="st10" d="M839.5,732.9l-12.8-4c-3.6-2.7-2.6-6-0.9-8.4c1.2-1.6,3-2.6,4.9-2.7c0.9-0.2,1.7-0.5,2.4-1
	c0.8-0.5,1.5-1.1,1.9-1.9c0.9-1.5,1.3-3.2,1.3-4.9c0,0,13.7-4.6,17.7-0.7c0.7,0.7,1.3,1.5,1.8,2.4c1.4,2.8,2.1,5.8,2.1,8.9
	c0,0,0.9,4.4,2.2,9.4S839.5,732.9,839.5,732.9z"/>
<path id="svg_129" class="st10" d="M901.1,724.3l-12.8-4c-3.6-2.7-2.6-5.9-0.9-8.3c1.2-1.6,3-2.6,4.9-2.7c0.5-0.1,1-0.2,1.4-0.5
	c0.3-0.1,0.7-0.3,1-0.5c3.5-2.1,3.2-6.8,3.2-6.8s13.7-4.6,17.7-0.7c0.5,0.5,1,1.1,1.4,1.8c2.5,4,2.5,9.5,2.5,9.5s0.9,4.4,2.2,9.4
	S901.1,724.3,901.1,724.3z"/>
<path id="svg_130" class="st11" d="M853.9,709.3c0.7,0.7,1.3,1.5,1.8,2.4l0,0l-20.7,3.2c0.9-1.5,1.3-3.2,1.3-4.9
	C836.2,710,849.9,705.4,853.9,709.3z"/>
<path id="svg_131" class="st11" d="M916.9,702.4l0.2,3.9c-3,5.5-18.7,4.9-23.4,2.4c0.3-0.1,0.7-0.3,1-0.5c3.5-2.1,3.2-6.8,3.2-6.8
	s13.7-4.6,17.7-0.7C916.1,701.2,916.5,701.8,916.9,702.4z"/>
<path id="svg_132" class="st12" d="M918.8,685.6c-0.9,1.7-1.7,3.5-2.3,5.4l0.5,14c-3.3,6-21.8,4.7-24.4,1.7s-5.6-11.3-2.8-12.8
	s4.8-8.7,4.8-8.7s-3,0.8-8-4.7s-4.1-18.1-3.3-21.1s-0.5-13.1-0.5-13.1s-0.1-7.1-1.6-9.3s-5-15.2-5-15.2s-0.2-4.4-2.7-6.6
	C871,613,869,604,869,604c-1.5-2.2-2.3-4.9-2.1-7.5c0.4-4.4-3.4-9.1-3.4-9.1l-6.8-18.9l-6.2-14.1l-2.8,8.4c0,0-0.1,19.5,0.7,23.5
	s2.3,14.8,2.3,14.8s-3.3,7.2-1.4,13.2s1.8,18.9,1.8,18.9s2.6,26.6,1.3,28.8s-1,7.5-1,7.5s7.8,15.3,5.6,17.5s-1.3,8-1.3,8
	s5-0.2,2.9,2s-3.2,13.4-3.2,13.4l-21.3,3.3c0,0-2.1-2.4-5.1-8.8s0.3-5.8,3.1-6.7s1-2.5-2.5-4.5s-1.7-6.8-1.7-6.8s4.8-8.9,3-9.5
	s-2.4-12.8-2.4-12.8s-4.1-14.4-3.4-18.3S822,633,822,633l-1.7-11.1c-4-6.2-5.7-13.6-4.7-20.9l-0.6-17.2c0,0-6.2-33-7.6-49.8
	c-0.9-10.7-1.3-25.4-1.5-34.6c-0.1-5.1-0.2-8.5-0.2-8.5l76.1-10.9c0.3,3.8,0.9,7.6,1.8,11.3c0.9,4.2,2.4,9.5,4.5,16.3
	c6.2,19.2,3.4,33.9,3.4,33.9l0.2,24.6c0,0,7.3,16.2,6.2,21.9c-0.7,3.4-1,6.8-1,10.3c0,0,16.4,35.3,15.2,45.8s6,26.7,6,26.7
	S920.4,682.3,918.8,685.6z"/>
<path id="svg_133" class="st13" d="M871.5,595.1l23.1-4C894.7,591.1,882,605.1,871.5,595.1z"/>
<path id="svg_134" class="st11" d="M890.4,568.5c0,0,1.1,8.2-3.8,11.5C886.6,580,895.6,578.3,890.4,568.5z"/>
<path id="svg_135" class="st11" d="M888,542.4c0,0-18.8,16.8-26,15.7S888,542.4,888,542.4z"/>
<path id="svg_136" class="st11" d="M843,603.8c0,0-14.6,3.9-14.8,9.9S843,603.8,843,603.8z"/>
<path id="svg_137" class="st13" d="M849.1,677.3c0,0-20.7,4.7-14.7,7.1s15.8,4.2,15.8,4.2S857,688.7,849.1,677.3z"/>
<g id="svg_138" class="st14">
	<path id="svg_139" d="M830.4,688.8c-1.1-0.6-1.8-1.7-2-3c-0.1,0.2-0.2,0.4-0.2,0.4s-1.8,4.8,1.7,6.8c0.4,0.2,0.8,0.5,1.1,0.7
		c0.6-0.1,1.3-0.3,1.9-0.4C835.7,692.5,833.8,690.8,830.4,688.8z"/>
	<path id="svg_140" d="M857.2,686.4c0.5-0.5,0.5-1.9,0.1-3.6c-0.8,1.6-1.1,3.4-1,5.2C856.4,687.3,856.7,686.8,857.2,686.4z"/>
	<path id="svg_141" d="M850.6,598.5c-0.7,2.1-1.1,4.3-1.2,6.6c0.3-1.6,0.8-3.1,1.5-4.5C850.9,600.6,850.8,599.8,850.6,598.5z"/>
	<path id="svg_142" d="M898,587.4c0.1-0.6,0.2-1.3,0.1-1.9c-0.2,1.3-0.3,2.6-0.4,3.6C897.8,588.6,897.9,588,898,587.4z"/>
	<path id="svg_143" d="M852.5,661.4c0.4-1.3,0.5-2.6,0.4-3.9c-0.6,1.6-0.9,3.3-0.8,5C852.1,662.1,852.3,661.8,852.5,661.4z"/>
	<path id="svg_144" d="M858.2,694.6c-1,3.6-1.6,7.3-2,11l-21.3,3.3c0,0-2-2.4-5.1-8.8c-0.3-0.6-0.5-1.1-0.7-1.5
		c-1.3,0.6-1.7,2,0.1,5.8c3.1,6.4,5.1,8.8,5.1,8.8l21.3-3.3c0,0,1.2-11.2,3.2-13.4C859.8,695.3,859.1,694.8,858.2,694.6z"/>
	<path id="svg_145" d="M828.7,663.9c0,0,0.7,12.2,2.4,12.8l0,0c0.8-2,1.3-4,0.5-4.3c-1.8-0.6-2.4-12.8-2.4-12.8s-4.1-14.4-3.4-18.3
		s-3.3-13.1-3.3-13.1l-1.7-11.1c-4-6.2-5.7-13.6-4.7-20.9l-0.7-17.1c0,0-6.2-33-7.6-49.8c-0.9-10.7-1.3-25.4-1.5-34.6
		c0-1.7-0.1-3.1-0.1-4.4l-0.6,0.1c0,0,0,3.4,0.2,8.5c0.2,9.2,0.6,23.9,1.5,34.6c1.4,16.8,7.6,49.8,7.6,49.8l0.7,17.1
		c-1,7.3,0.7,14.7,4.7,20.9l1.7,11.1c0,0,4.1,9.2,3.3,13.1S828.7,663.9,828.7,663.9z"/>
	<path id="svg_146" d="M893.2,701.8c-1.8-2.4-3.1-5.3-3.7-8.3c-2.1,2,0.7,9.6,3.2,12.5c2.6,3.1,21.1,4.3,24.4-1.6L917,701
		C912.3,706,895.6,704.7,893.2,701.8z"/>
	<path id="svg_147" d="M919.3,680.8c-0.9,1.7-1.7,3.5-2.3,5.4l0.1,2.5c0.4-0.9,0.9-2.2,1.6-3.6C919.2,683.7,919.4,682.2,919.3,680.8
		L919.3,680.8z"/>
	<path id="svg_148" d="M893.6,684.6c0.6-1.4,1.2-2.8,1.6-4.3c0,0-3,0.8-8-4.7c-3.6-4-4.1-11.8-3.8-16.8c-0.8,3-1.7,15.7,3.3,21.1
		C889.9,683.5,892.3,684.4,893.6,684.6z"/>
	<path id="svg_149" d="M882.9,645.7c0.4,3.5,0.7,7,0.8,10.5c0.1-0.6,0.2-1.1,0.3-1.7c0.8-3-0.5-13.1-0.5-13.1s-0.1-7.1-1.6-9.3
		s-5-15.2-5-15.2s-0.2-4.4-2.7-6.6c-2.5-2.2-4.5-11.2-4.5-11.2c-1.5-2.2-2.3-4.9-2.1-7.5c0.4-4.4-3.4-9.1-3.4-9.1l-6.8-18.9
		l-6.2-14.1l-2.9,8.4c0,0,0,1,0,2.7l2.3-6.9l6.2,14.1l6.7,18.9c0,0,3.7,4.6,3.4,9.1c-0.2,2.7,0.5,5.3,2.1,7.5c0,0,1.9,9,4.5,11.2
		c2.6,2.2,2.7,6.6,2.7,6.6s3.5,13,5,15.2S882.9,645.7,882.9,645.7z"/>
</g>
<path id="svg_150" class="st15" d="M885.2,319.9l-1.1,6.5l0.2,2.9l0.1,2.1l-7.3,1l-0.9-1.5l0,0c-1.6-2.7-5-8.2-6.1-9
	c-1.4-1.1-4.5-18.9-1.6-18c1.8,0.6,3.3,1.9,4.3,3.6C872.8,307.4,887.4,308.6,885.2,319.9z"/>
<path id="svg_151" class="st11" d="M884.5,331.4l-7.3,1l-0.9-1.5l0,0c2-2.4,5.3-3.1,8.1-1.7L884.5,331.4z"/>
<path id="svg_152" class="st16" d="M886.4,334.8l-9.6,2.6l-0.3-1.4l-0.7-3.9c0,0,3.7-5.3,9.4-1.6l0.6,2L886.4,334.8z"/>
<path id="svg_153" class="st15" d="M728.3,326.6l-10.2,6c0,0-0.4-0.8-1-1.9c-1.1-2-2.7-5.1-3.1-6.2c-0.7-1.7-5.1-3.7-5.1-3.7
	c-11.3-10,1.3-19.4,1.3-19.4c6.3-14.1,14.7,4.1,14.7,4.1s1.4,9.7,0.7,10.4s-0.6,3.3-0.6,3.3c1.1,1.9,2,3.8,2.7,5.9
	C728.1,326,728.3,326.6,728.3,326.6z"/>
<path id="svg_154" class="st11" d="M728.3,326.6l-10.2,6c0,0-0.4-0.8-1-1.9c1.4-1.3,6.5-5.7,8.2-5.6c0.8,0.1,1.6,0.1,2.5,0
	C728.1,326,728.3,326.6,728.3,326.6z"/>
<path id="svg_155" class="st16" d="M729.5,329.7l-11.5,6.2l-0.3-2.5l-0.2-1.7c0,0,6.5-6.1,8.5-5.9c1,0.1,2,0.1,3-0.1l0.2,2.1
	L729.5,329.7z"/>
<path id="svg_156" class="st15" d="M858.6,363.8c0,0-50.7,7.7-41.3,4.3c6.5-2.4,9-6.7,9.4-11.4c0.3-3.9-0.9-8.1-2.3-11.7
	c-1.3-3.2-3-6.2-4.9-9c0,0,38.1-22.9,31-3.1c-1.1,3-1.7,6.1-1.8,9.3s0.3,6.3,1.4,9.3C851.6,356.2,854.6,360.5,858.6,363.8z"/>
<path id="svg_157" class="st11" d="M850.5,332.8c-1.1,3-1.7,6.1-1.8,9.3c-3.5,3.2-7.6,3.2-12.7,3.4c-4,0.1-8.3,1.3-11.6-0.5
	c-1.3-3.2-3-6.2-4.9-9C819.4,336,857.5,313.1,850.5,332.8z"/>
<circle id="svg_158" class="st15" cx="834.4" cy="325.8" r="21.1"/>
<path id="svg_159" class="st11" d="M858.6,363.8c0,0-50.7,7.7-41.3,4.3c6.5-2.4,9-6.7,9.4-11.4c2.4-2.9,7.4-5,10.7-6.2
	c2.9-1.1,6.2-1.3,9.2-0.5c1.2,0.3,2.4,0.8,3.4,1.4C851.6,356.2,854.6,360.5,858.6,363.8z"/>
<path id="svg_160" class="st11" d="M886.4,334.8l-9.6,2.6l-0.3-1.4c2-3,5.7-4.4,9.2-3.6L886.4,334.8z"/>
<path id="svg_161" class="st11" d="M729.5,329.7l-11.5,6.2l-0.3-2.5c3.7-2.2,7.6-4,11.6-5.6L729.5,329.7z"/>
<path id="svg_162" class="st11" d="M883.6,491.3c-19.6,3.9-47.5,9-52,7.8c-3.7-1-15.5-0.4-25.8,0.3c-0.1-5.1-0.2-8.5-0.2-8.5
	l76.1-10.9C882,483.8,882.7,487.6,883.6,491.3z"/>
<path id="svg_163" class="st4" d="M903.1,485.9c0,0-64.5,13.6-71.5,11.8s-42.7,1.8-42.7,1.8c-15.7,11.4-9.6-4.8-9.6-4.8
	s-1.7-8.3,0-15c1.1-5,1.8-10,2.1-15.1c0,0-0.8-10.6,1.1-13.1s3.5-20.3,3.5-20.3s1.3-12.1,1-14.7s0.2-10.1,0.2-10.1l1.8-12.5
	c-13.3-1.3-54.6-24.5-54.6-24.5c-2.3-8.2-18-27.1-18-27.1c-0.3-1.6-0.8-3.2-1.4-4.7c-1.2-2.8,14.5-9.1,14.5-9.1s12.4,14,15,17.8
	s11.4,10.7,11.4,10.7c1.3-0.2,2.7-0.1,3.9,0.4l0.2,0.1l0,0c2.9,1,5.6,2.4,8.1,4.2c4-0.3,7.9,1.1,10.9,3.6c0,0,7.2-1.3,8.5-0.1
	s7.4-0.3,7.4-0.3s5.7-13.3,9.9-9.7s21.5,2.8,21.5,2.8c2.2-3.1,7.7-5.6,11.2-6.8c2.9-1.1,6.2-1.3,9.2-0.5c1.3,0.3,2.6,0.9,3.7,1.6
	l10.9,9.9c0,0,2.9-4,2.5-4.9s3.5-1.7,3.5-1.7s5.1-1.8,7-2.4c1.9-0.6,3.8,1.4,4,1.6c-0.1-0.2-1.6-4.4-1.2-7.7s-2.4-6.3-2.4-6.3
	c5.6-15.4,20.1-3.3,20.1-3.3s1.9,8.3,0.6,11.5s1.8,9.8,1.5,11.6s0.9,4.8,1,8.1s-1.4,9.8-2.3,12.7c-1,2.9-9.2,9.6-9.2,9.6
	s-0.4,10-3.9,16s-0.4,25.9-0.4,25.9s4.1,15.4,8.8,20.2S903.1,485.9,903.1,485.9z"/>
<path id="svg_164" class="st11" d="M804,373.2c0,0-2.2-5.8-4-6.2c-1.8-0.6-3.5-1.3-5.2-2.1l1-2.2c0,0,6.7,1.6,7.8,3.5
	C804.7,368.1,804,373.2,804,373.2z"/>
<path id="svg_165" class="st11" d="M768,361.7c-0.3,1.8-16,4-16,4l7.7-8.3l0,0l0.2,0.1l0,0C762.8,358.4,765.5,359.9,768,361.7z"/>
<circle id="svg_166" class="st17" cx="721.5" cy="339.1" r="1.4"/>
<circle id="svg_167" class="st17" cx="723.5" cy="341.9" r="1.4"/>
<circle id="svg_168" class="st17" cx="725.3" cy="344.4" r="1.4"/>
<circle id="svg_169" class="st17" cx="727.3" cy="347.2" r="1.4"/>
<circle id="svg_170" class="st17" cx="894" cy="340.6" r="1.2"/>
<circle id="svg_171" class="st17" cx="894.2" cy="343.2" r="1.2"/>
<circle id="svg_172" class="st17" cx="894.5" cy="345.8" r="1.2"/>
<path id="svg_173" class="st11" d="M806,421.1c-0.2-0.2,41.6,48.6,71.5,18.3C877.4,439.4,828.8,447.9,806,421.1z"/>
<path id="svg_174" class="st11" d="M784.1,448.2c0,0,23.9-0.3,26.6,6.5l0.3,7.1c-1.3,0.8-3,0.9-4.4,0.2c-2.5-1.2-17.2-8-22.1-4.3
	L784.1,448.2z"/>
<path id="svg_175" class="st18" d="M784.5,448.1c0,0,22.8-0.3,25.5,6.2l0.3,6.8c-1.3,0.8-2.9,0.8-4.3,0.2c-2.3-1.1-16.4-7.6-21.1-4
	L784.5,448.1z"/>
<path id="svg_176" class="st11" d="M795.1,395.9c2.7,5.5,6,10.8,9.9,15.5c4.2,5.3,9.3,9.8,15,13.4
	C820,424.8,795.6,399.1,795.1,395.9z"/>
<path id="svg_177" class="st11" d="M786.2,368.5c0,0,4.6,17,15.1,22.5L786.2,368.5z"/>
<path id="svg_178" class="st11" d="M780.2,370.4c-0.1-0.3-3,13.7,14,20.8C794.2,391.2,787,389,780.2,370.4z"/>
<path id="svg_179" class="st11" d="M883.9,354.9c-0.3,0,8.5,5.1,10.9,7.6C894.8,362.4,888.9,354.3,883.9,354.9z"/>
<g id="svg_181" class="st19">
	<path id="svg_182" d="M855.7,342.1c-0.8,0.9-1.7,1.6-2.8,2c-5.8,2.7-12.5,2.7-19,2.5c-1.8,0.3-3.5-1-3.7-2.8c0-0.1,0-0.2,0-0.3
		c-1.4-4.5-2.7-8.6-5.8-12.2c-0.6-0.8-1.5-1.5-2.5-1.8c-0.9-0.1-1.9,0.1-2.8,0.4c-0.9,0.3-1.9,0.1-2.6-0.5c-0.4-0.5-0.6-1.2-0.5-1.9
		c0-1.9,0.3-4-1-5.5c-0.7-0.8-1.8-1.2-2.5-2c-0.9-1.2-1.2-2.8-0.6-4.2c-1,1.8-1.5,4.1-0.1,5.6c0.7,0.8,1.8,1.2,2.5,2
		c1.2,1.4,0.9,3.6,1,5.5c0,0.7,0.1,1.3,0.5,1.8c0.7,0.6,1.7,0.8,2.6,0.5c0.9-0.3,1.8-0.4,2.8-0.4c1,0.3,1.9,0.9,2.5,1.8
		c3.1,3.7,4.4,7.8,5.8,12.2c0.2,1.1,0.8,2.1,1.8,2.8c0.6,0.3,1.3,0.4,2,0.4c6.4,0.1,13.1,0.2,19-2.5c1.1-0.4,2.1-1.1,2.8-2
		c0.4-0.5,0.7-1.1,0.8-1.7C855.8,341.9,855.7,342,855.7,342.1z"/>
	<path id="svg_183" d="M813.5,313c0.3-0.3,0.5-0.7,0.6-1.1c0.1-0.5,0.1-0.9,0-1.4c-0.3-2.6,0-5.2,0.7-7.6l-0.1-0.1
		c-1.1,2.9-1.6,6.1-1.2,9.2C813.5,312.3,813.5,312.6,813.5,313z"/>
</g>
<path id="svg_184" class="st11" d="M826.2,358c0,0,26.4,2.5,28.6-1.6"/>
<path id="svg_185" class="st11" d="M876.9,345.2c0,0,14.6-0.5,18,4.8"/>
<linearGradient id="svg_194_1_" gradientUnits="userSpaceOnUse" x1="-2050.0469" y1="743.9219" x2="-2050.0469" y2="339.0919" gradientTransform="matrix(205.3006 0 0 404.8932 421325.9375 440.524)">
	<stop  offset="0" style="stop-color:#808080;stop-opacity:0.25"/>
	<stop  offset="0.54" style="stop-color:#808080;stop-opacity:0.12"/>
	<stop  offset="1" style="stop-color:#808080;stop-opacity:0.1"/>
</linearGradient>
<path id="svg_194" class="st20" d="M552.7,319c-0.6-3-0.9-6.1-1-9.2c0-3.7-5-7-5-7s-3.1-7.2-5.1-8.3s-8.5-10.5-8.5-10.5
	c-0.1-1.9-0.8-3.6-1.9-5.1c-1.9-2.5-3.7-5.2-5.2-7.9l0,0c-0.9-1.1-0.4-1.8-1.7-7.9c-0.1-0.3-0.2-0.6-0.2-0.9c0-0.1-0.1-0.3-0.1-0.4
	c2.8-2.8,3.7-7,2.4-10.7c-0.2-0.7-0.7-1.4-1.2-1.9c-1.5-1.2-3.8-0.7-5.3-1.8l1.6-7.1c0.4-1.7,0.6-3.9-0.9-4.9
	c-0.6-0.3-1.2-0.5-1.8-0.6c-2.6-0.8-4.1-3.6-4.8-6.2c-0.7-2.5-0.8-5.2-0.5-7.8c0.3-2.5,1-4.9,1.3-7.5c0.5-4.7-0.6-9.3-3.2-13.3
	c-1-1.7-2.4-3.1-4.2-4c-1.6-0.7-3.5-0.8-5-1.8c-3.2-2-3.1-6.9-5.6-9.7s-7.1-2.8-10.9-1.8c-3.7,1-7.4,2.6-11.3,2.2
	c-2.5-0.3-4.8-1.4-7.3-1.6c-0.7-0.1-1.4,0-2.1,0.1l0.1-0.1c-1.8,0.3-3.5,1.4-4,3.1c-0.1,0.4-0.1,0.8-0.1,1.3c0,1,0.2,2.1,0.3,3
	c0.1,0.8-0.2,1.5-0.7,2.1c-0.5,0.5-1.2,0.8-1.7,1.4c-0.4,0.4-0.6,1-0.6,1.6c0,1.5,1.9,2.9,3.2,3.5l0,0c-0.4,0.4-0.7,0.7-1,1.1
	c-3.7,4.2-5.7,9.6-5.6,15.1c0,9.2,5.5,17.5,14,21.1c-0.1,0.2-0.1,0.4-0.2,0.6c-0.4,1.1-0.8,2.2-1.3,3.3c-1.8-0.6-3.8-0.4-5.4,0.6
	c-2.5,1.7-7.3,1.6-8.6,1.3c-1.3-0.3-14.7-2-15.8-1.6s-3.2-1.5-4.6,1.1c-1.4,2.5-2,3.9-3.4,4.5s-3.9,2.7-3.5,3.1c0.3,0.4-3.5,3-3.5,3
	s-3.3,3.5-5.3,3.9c-1.9,0.4-6,3.1-6,3.1l-4.7,3.7c0,0-3.5,0.5-2.5-1.9s-1.9-5.5-1.9-5.5s-6-12.2-6-14.7s-4.9-13.2-4.9-13.2l-0.6-0.1
	c-0.1-0.3-0.2-0.5-0.3-0.8c-0.9-2.5-2.1-5.7-3-7.5c-1.7-3.5-2.8-3.9-2.8-3.9s-21-15.7-34.5-11s24.7,18.9,28.1,20.4
	c1.2,0.5,2.1,2.2,2.7,4.1c-3,1.5-5.6,3.8-7.3,6.7c0,0,8.3,18.3,8.5,22.8c0.2,4.6,5.7,17.3,5.7,17.3s2,9.4,13.1,8.9
	c0,0,15.2,2.8,18.5,0c3.3-2.8,6.3-5,7.9-5.3c1.2-0.4,2.2-1.1,3-2.1c0,0-5,31.7-7.5,34.5s-24.3,38.4-16.5,44.8
	c6.2,4.8,12.8,9.2,19.6,13c0.7,0.3,2.7-3,5.5-5.3c0,0.6,0,1.2,0,1.8c0.1,12.7,1.7,32,4.1,36.3c3.4,6.3,2,18.6,2,18.6
	c1.8,0.9,3.8,1.3,5.8,1.4c0.1,0.4,0.2,0.8,0.3,1.3c1.9,7.1,5,18.2,6.5,21.1c2.4,4.5,4.1,18.5,4.1,18.5s1.4,13.9,0.9,15.8
	c-0.2,0.7,0.7,6.5,2.1,13.8l0,0c-0.9,9.9-2.5,29-2.8,36l0,0c0,0.1,0,0.3,0,0.4v0.3c0,0.2,0,0.3,0,0.4l0,0c0,0.4,0,0.9,0,1.3
	c0.1,0.7,0.1,1.4-0.1,2c-0.6,1.9-1.4,3.8-2.3,5.5c-0.1,0.2-0.6,1.4-1,2.7c-0.9,0.4-1.9,1.3-2.5,3.5c-1.1,4.1-2.7,15.6-2.7,15.6
	s-0.6,7-1.9,8.6c-1.3,1.6-2.6,11.5,6.5,12.8s13.1-4.8,13.1-4.8l-0.3-27.7l0,0c0.2-0.2,0.3-0.5,0.5-0.8v-0.1c0.1-0.1,0.1-0.3,0.2-0.4
	c0.1-0.1,0-0.1,0.1-0.2c0.1-0.1,0.1-0.2,0.1-0.3v-0.1c0.9-2.7,1.2-5.5,0.8-8.3v-0.1v-0.2c0-0.1,0-0.1,0-0.2c0-0.1,0-0.1,0-0.2
	c0-0.1,0-0.2,0-0.2v-0.2c0-0.2,0-0.4,0.1-0.6v-0.1c0-0.1,0-0.2,0-0.3c0,0,0-0.1,0-0.2c0-0.1,0-0.2,0.1-0.3v-0.1
	c0.1-0.4,0.2-0.8,0.3-1.3v-0.1l0.1-0.4l0,0c0.1-0.5,0.3-0.9,0.4-1.3v-0.1l0.1-0.4l0,0c0.1-0.4,0.3-0.8,0.5-1.2v-0.1l0.1-0.3v-0.1
	l0.3-0.8l0,0l2.5,7.8c0,0,1.4,5.8,0.6,7.2s0.9,7.1,1.9,7.2l-1,7.2c-0.6,4-0.9,8-1,12c-0.1,0.5-0.1,0.8-0.2,1.1c-0.7,3.7,1,9.4,1,9.4
	c8.5,10,18.6,0.8,18.6,0.8s1.2-5.3,0-6.3c-1.2-1-0.6-4.9-0.6-4.9s0.5-9.4,0.6-16.3c0.1-6.9-5.6-12.9-5.6-12.9l-0.3,0.3
	c-1-2.7-2.2-5.8-2-7.3c0.4-2.4-1.2-28.1-1.2-28.1c0.6-6.9,0.7-13.8,0.4-20.7l0,0c0.1-1.2,0.3-2.3,0.4-3.4c0.6-5.5,1.2-10.3,1.4-12.7
	l0,0v-0.3c0-0.7,0.1-1.1,0.1-1.4c0-0.8,0-1.8,0.1-2.9c0.2-3,0.7-6.3,0.7-6.3l2.3-13.7c0,0,1.7-6.7,4.2-10.4l0.3-0.5l0,0
	c0.1-0.2,0.2-0.3,0.3-0.5v-0.1l0.3-0.6v-0.1c0.4-0.7,0.7-1.5,1.1-2.3l0.1-0.2l0.3-0.7l0.1-0.3l0.3-0.7c0-0.1,0.1-0.2,0.1-0.3
	c0.1-0.3,0.2-0.5,0.3-0.8l0.2-0.4c0.1-0.2,0.2-0.4,0.3-0.6l0.2-0.5l0.1-0.4l0.2-0.6c0-0.1,0.1-0.2,0.1-0.3c0.6-1.5,1.2-3,1.7-4.4
	l0,0c0.2-0.4,0.3-0.8,0.5-1.2c5.5,0.3,9.2,0.7,9.2,0.7s1.7-12.4,1.2-20.5c-0.4-5.6,0.7-12.6,1.4-16.4c0.1-0.4,0.1-0.8,0.2-1.2
	l0.1,0.1c2.7,2.1,4.6-4.9,4.6-4.9s-0.7-6.5-1.7-14.4c0-0.3-0.1-0.5-0.1-0.8c1.5,0.3,3.1,0.6,4.7,0.7c0,0,0.9-0.1,2-0.2
	c3.2,1.9,6.6,3.4,10.2,4.6l5.7-10.6c1.1-2.2,2.3-4.3,3.8-6.2c1.7-2.1,7.8-8.9,7.7-10.2c-0.1-1.3,2-8.6,4.2-11.9
	C551.5,326.2,552.8,319.5,552.7,319z M528.9,327c-2.3,1-4.4,6.2-4.5,7.8c-0.1,1.6-2.5,8.6-4.9,9.4c-2.3,0.8-6.6,4.8-7.3,5.4
	c-0.7,0.1-1.5,0.2-2.4,0.3c-0.9-6.7-1.9-12.2-2.5-13.3c-1.7-3.2,1.9-13.3,1.9-13.3s0.4-10.3,2.6-12.7c2.2-2.4,1.7-8.6,1.7-8.6
	s0.5-2.5,0.8-3.7c0.2-1.2,3.2,0,3.2,0l0,0c0,0,5.8,3.2,6.6,7.9c0.9,4.8,7.2,13,7.2,13s-1,2.8,0,4.3S531.2,326,528.9,327L528.9,327z"
	/>
<path id="svg_195" class="st21" d="M373.9,236.6c3.6-5.9,10.4-9.2,17.3-8.1v12.4h-7.5l-5.9-1.5L373.9,236.6z"/>
<path id="svg_196" class="st11" d="M373.9,236.6c3.6-5.9,10.4-9.2,17.3-8.1v12.4h-7.5l-5.9-1.5L373.9,236.6z"/>
<path id="svg_197" class="st22" d="M391.7,231.7l-9.2,6.5c0,0-0.1-1.3-0.3-3.1c-0.5-3.3-1.5-8.3-3.7-9.3c-3.4-1.5-41-15.6-27.7-20.4
	c13.3-4.8,33.8,10.8,33.8,10.8s1.1,0.4,2.7,3.9c0.9,1.8,2,4.9,2.9,7.5C391.1,229.9,391.7,231.7,391.7,231.7z"/>
<polygon id="svg_198" class="st21" points="465.2,241.6 466.2,241.1 469.2,244.5 466.8,249.6 462.7,248 463.6,243.9 "/>
<path id="svg_199" class="st2" d="M451.3,541.6c0,0-2.6-0.3-3.7,3.8c-1.1,4.1-2.6,15.5-2.6,15.5s-0.6,7-1.9,8.5s-2.5,11.5,6.4,12.8
	s12.9-4.8,12.9-4.8l-0.3-27.7L451.3,541.6z"/>
<path id="svg_200" class="st2" d="M482.6,542.8c0,0,5.6,6,5.6,12.9s-0.6,16.3-0.6,16.3s-0.5,3.8,0.6,4.9s0,6.3,0,6.3
	s-9.9,9.2-18.3-0.8c0,0-1.6-5.7-1-9.4s2.5-20.3,2.5-20.3L482.6,542.8z"/>
<path id="svg_201" class="st22" d="M496.6,416.5c0,0-5.7,16-8.1,19.6c-2.4,3.6-4.1,10.4-4.1,10.4l-2.2,13.6c-0.4,3-0.7,6.1-0.7,9.2
	c0.1,3.1-5.5,47.7-5.5,47.7l-8.9,11.3c0,0-3.9,7.9-3.3,11.2c0.6,3.3-0.4,8.5-1.7,10.1c0,0-0.2,10.3-0.5,12.7c-0.3,2.4,1.2,8.9,0,10
	c-1.2,1.1-16.7,0.6-17.1-1.3c-0.4-1.9,1.9-11.1,1.9-11.1l1.4-8.9c0,0,2.7-4.9,2.1-6.4c-0.6-1.5,1.2-5.3,1.3-5.6s3-5.5,2.4-7.5
	s3.3-44.6,3.3-44.6l10.9-76.4L496.6,416.5z"/>
<path id="svg_202" class="st11" d="M496.6,416.5c0,0-0.9,2.4-2.1,5.6c-1.9,5-4.6,11.8-6.1,14.1c-2.4,3.7-4.1,10.4-4.1,10.4
	l-2.2,13.6c-0.4,3-0.7,6.1-0.7,9.2c0,1.2-0.8,8.9-1.9,17.8c-1.6,13.6-3.6,29.9-3.6,29.9l-8.9,11.3c0,0-0.4,0.9-1,2.2
	c-1.1,2.6-2.7,6.8-2.3,9c0.6,3.3-0.4,8.6-1.7,10.1c0,0-0.2,10.4-0.5,12.7c-0.3,2.3,1.2,8.9,0,10c-1.2,1.1-16.7,0.6-17.1-1.3
	c-0.4-1.9,1.9-11.1,1.9-11.1l1.4-8.9c0,0,2.7-4.9,2.1-6.4c-0.6-1.5,1.2-5.3,1.3-5.6s3-5.5,2.4-7.5c-0.4-1.5,1.7-26.5,2.7-38.4
	c0.3-3.7,0.6-6.2,0.6-6.2l9.4-65.7l0.8-5.3l0.8-5.4L496.6,416.5z"/>
<path id="svg_203" class="st22" d="M487.1,575.4c0.1,1.2-14.9,2.8-17,1.6s0-17,0-17l1-7.2c-1.1-0.1-2.6-5.8-1.9-7.2
	s-0.6-7.2-0.6-7.2l-2.5-7.8l-1.5-4.8c-2.5-5.5-6-21-8.3-32.6c-1.4-7.3-2.3-13-2.1-13.8c0.5-1.9-0.9-15.7-0.9-15.7s-1.7-14-4-18.5
	c-1.5-2.9-4.6-14-6.4-21.1c-0.9-3.6-1.6-6.3-1.6-6.3s16-1.3,25.6-1.8c4.5-0.2,7.6-0.2,7.2,0.1c-0.4,0.3-0.4,2.3-0.4,5.1
	c0,7.3,1.1,20,2.1,23.4c1.5,4.8,3,19,2.3,20.4c-0.7,1.4-0.4,10.6-0.4,10.6c1.1,3.7,1.7,7.6,1.9,11.5c0.3,6.9,0.2,13.8-0.4,20.6
	c0,0,1.6,25.7,1.2,28.1c-0.4,2.4,3.4,10,3.4,11.5s1,11.5,1,11.5S487,574.2,487.1,575.4z"/>
<path id="svg_204" class="st22" d="M495.4,266.9l-1.8,2l-1.2,1.3l-6.9,7.4l-17.9,2l-9.5-2.5l-2.4-0.6c0,0,0-4.8,0.4-10.5
	c0.6-7.3,2.1-16.2,5.5-18.7c1.7-1.4,3.1-3.1,4-5.1c0.7-1.4,1.3-2.8,1.7-4.3c0.1-0.2,0.1-0.4,0.2-0.5c0.8-2.6,1.3-5.2,1.7-7.8
	c0,0,2.3-1.3,5.4-2.7c8.3-3.9,22.6-9.2,17.6,2.7c-0.7,1.7-1.4,3.5-1.9,5.4c-0.1,0.3-0.1,0.5-0.2,0.8c-1.7,6.6-0.6,10.7,0.7,12.9l0,0
	c0.2,0.4,0.5,0.7,0.7,1.1c0.3,0.5,0.7,0.9,1.2,1.2l2.1,13l0.2,1.1L495.4,266.9z"/>
<path id="svg_205" class="st11" d="M492.3,230.1C491.4,232.4,492.8,228.3,492.3,230.1c-3.8,2.7-12.6,10.3-17.6,10.3
	c-3.4,0-4.4-0.6-7.3-1.9c0.9-2.7,1.5-5.5,1.9-8.4C469.3,230.1,499.2,213.6,492.3,230.1z"/>
<path id="svg_206" class="st22" d="M499.9,216.3c0,11.8-8.9,21.7-20.6,22.9c-0.8,0.1-1.6,0.1-2.4,0.1c-12.7,0-23-10.3-23-23
	s10.3-23,23-23C489.6,193.3,499.9,203.6,499.9,216.3L499.9,216.3L499.9,216.3z"/>
<path id="svg_207" class="st11" d="M503.2,318.3l-3.3,8.6c0,0-2.7,0.1-6.8,0.3c-14,0.5-45,1-46.4-2.6c-0.3-0.9-0.5-1.9-0.5-2.8
	c-0.2-5.5,2.4-14,2.4-14s1.5-16.9,1.5-17.6s-1.3-12.6-1.3-12.6l2.5-9.5l7.1-5c0,0,3.2,4.9,5.1,5.3c1.9,0.4,4.4,2.8,4.4,2.8
	s6.2,3.8,8.2,1.7s17.6-11.4,17.6-11.4l8.2,9.1L503.2,318.3z"/>
<path id="svg_208" class="st23" d="M503.2,319.6l-3.3,8.6c0,0-2.7,0.1-6.8,0.2h-0.4l-6.1,0.2c-11.2,0.3-26.6,0.3-34.6-0.9
	c-3-0.4-5-1-5.3-1.9c-0.2-0.5-0.3-1-0.4-1.6c-0.1-0.4-0.1-0.8-0.1-1.3c-0.2-5.5,2.4-14,2.4-14s1.5-16.9,1.5-17.6s-1.3-12.6-1.3-12.6
	l2.5-9.5l4.9-3.4l2.2-1.5c0.7,1.1,1.6,2.2,2.4,3.2c0.7,0.9,1.6,1.6,2.6,2.1c1.9,0.4,4.4,2.8,4.4,2.8s6.2,3.8,8.2,1.7
	c1.5-1.6,11-7.4,15.4-10.1l2.2-1.3l1.1,1.2l7.1,7.9L503.2,319.6z"/>
<path id="svg_209" class="st11" d="M391.7,231.7l-9.2,6.5c0,0-0.1-1.3-0.3-3.1c4.5-1.9,7.3-6.1,8.1-7.5
	C391.1,229.9,391.7,231.7,391.7,231.7z"/>
<path id="svg_210" class="st4" d="M424,253.6l-2-0.5c0,0-3.3,3.5-5.2,3.9s-5.9,3.1-5.9,3.1l-4.6,3.6c0,0-3.5,0.5-2.4-1.9
	s-1.9-5.5-1.9-5.5s-5.9-12.1-5.9-14.7s-4.9-13.2-4.9-13.2s-6.1,11.9-17.3,8.1c0,0,8.1,18.3,8.3,22.8c0.2,4.5,5.6,17.2,5.6,17.2
	s2,9.4,12.9,8.9c0,0,15,2.8,18.3,0c3.3-2.8,6.2-5,7.8-5.3c1.2-0.4,2.2-1.1,2.9-2.1v-12.6L424,253.6z"/>
<path id="svg_211" class="st11" d="M405.2,265.5c0,0,2.6,9.8,1,10.9L405.2,265.5z"/>
<path id="svg_212" class="st11" d="M493.1,328.4c-14,0.5-45,1-46.4-2.6c-0.3-0.9-0.5-1.9-0.5-2.8l45.9,2.4L493.1,328.4z"/>
<path id="svg_213" class="st11" d="M496.6,416.5c0,0-0.9,2.4-2.1,5.6c-5.8-0.4-13.6-0.7-20.9-0.8c-2.6,0-5.1,0-7.5,0.1
	c-4.1,0-8.3,0.5-12.3,1.4c-3.6,1.1-7.3,1.6-11,1.4c-0.9-3.6-1.6-6.3-1.6-6.3s16-1.3,25.6-1.8l0.8-5.4L496.6,416.5z"/>
<path id="svg_214" class="st12" d="M508.9,377.9l-1.8,3.8c0,0-0.3,1.1-0.6,2.9c-0.7,3.9-1.7,10.9-1.3,16.4
	c0.5,8.1-1.2,20.5-1.2,20.5s-38.9-3.3-50.3,0s-17,0-17,0s1.4-12.3-2-18.6c-2.3-4.3-3.9-23.6-4-36.3c0-5.9,0.3-10.3,1-11.2
	C434,352.5,444,324,444,324l2.3,0.1l6,0.3l34.4,1.8l5.4,0.3l0.6,1.8L508.9,377.9z"/>
<path id="svg_215" class="st21" d="M526,365.2l0.3,3.4c0,0-17-5.5-16.2-12.4c0.8-6.9,0-6,0-6l13.7,1.2L526,365.2z"/>
<path id="svg_216" class="st11" d="M526,365.2l0.3,3.4c0,0-17-5.5-16.2-12.4c0.8-6.9,0-6,0-6l13.7,1.2L526,365.2z"/>
<path id="svg_217" class="st11" d="M416.6,268.2c1.7,1.5,3.8,2.5,6,3.1c-0.7-0.1-1.3-0.4-1.8-0.8c-1.2-0.9-2.4-1.8-3.6-2.7
	c-0.9-0.7-2.1-2-3.3-2.3C414.7,266.5,415.6,267.4,416.6,268.2z"/>
<path id="svg_218" class="st11" d="M416.8,272.7c0.6,0.6,1,1.3,1.3,2.1c0.3,0.9,0.4,1.8,0.4,2.7c0.1,1.3,0,2.6-0.5,3.8l-2.7-6.6
	c-0.5-1.1-1-2.2-1.5-3.3c-0.3-0.5-1.8-2.4-1.6-2.8C412.6,267.5,416.3,272,416.8,272.7z"/>
<path id="svg_219" class="st11" d="M493,309.1c1.9-0.2,3.6-1,5-2.3c-2.8,0.4-5.5,1.5-8.2,2c-2.6,0.6-5.3,0.4-7.7-0.7
	C485.2,309.7,489.6,309.7,493,309.1z"/>
<path id="svg_220" class="st11" d="M485,289.8c-0.5,0.1-1-0.1-1.4-0.4c-2.1-1.2-4.2-2.5-6.2-3.8c-2.2-1.2-4.2-2.6-6.1-4.2
	C475.5,285.2,479.4,288.4,485,289.8z"/>
<path id="svg_221" class="st11" d="M490.9,312.2c1.1,0,2.2,0,3.3-0.3c1.1-0.2,2.1-0.9,2.7-1.8c-0.4-0.1-0.8,0-1.1,0.2
	c-3.3,1.4-7,1.8-10.6,1.3C486.9,312.3,489.1,312.2,490.9,312.2z"/>
<path id="svg_222" class="st11" d="M470.9,361.2c-2.2,0.7-4.5,1.1-6.8,1.3c-1.8,0.1-3.6,0-5.3-0.1l-8.6-0.5l-4.3-0.3
	c-0.5,0-2.6,0-1.6-1c0.5-0.5,3.4-0.2,4.1-0.2c1.4,0,2.9-0.1,4.3-0.1c2.9,0,5.7,0,8.6,0.2C464.5,360.6,467.7,360.9,470.9,361.2z"/>
<path id="svg_223" class="st11" d="M460.9,365.5c-1.5-0.1-3.4,0.8-4.9,1c-1.7,0.2-3.4,0.3-5.1,0.2c-3.4-0.1-6.7-0.8-9.8-2
	C447.7,365,454.3,365.2,460.9,365.5z"/>
<path id="svg_224" class="st11" d="M442.4,370c0.6,0.1,1.3,0.3,1.9,0.5c3.6,1,7.5,0.1,11.2-0.8c-0.9,1.4-2.6,2-4.3,2.4
	c-2.7,0.7-5.5,0.8-8.3,0.3c-0.9-0.2-3-0.5-3.5-1.4C438.8,369.7,441.6,369.9,442.4,370z"/>
<path id="svg_225" class="st11" d="M462.8,376.8c1.1,0.2,2.2,0.5,3.2,0.8c4.1,1,8.4-0.4,12.5-1.3c5-1.1,10-1.6,15.1-1.4
	c-0.9,0-2.4,0.8-3.2,1.1c-1.2,0.4-2.4,0.7-3.5,1c-2.3,0.6-4.7,1-7.1,1.4c-4.8,0.7-9.6,0.9-14.5,0.6c-2.2-0.1-6,0.1-7.9-1
	C459,377.1,460.9,376.6,462.8,376.8z"/>
<path id="svg_226" class="st11" d="M464.4,246.6c0,0,0.2,9.7-1.4,14.2c-0.5,1.4-1.3,3.9-2.1,6.8c-0.9,3.2-1.9,6.7-2.7,9.5
	c-0.8,2.8-1.3,4.6-1.3,4.6s-3.6,29.1-4.5,42.9c0,0.2,0,0.5,0,0.7c-0.1,0.8-0.1,1.6-0.3,2.4c-2.1,13.8-13.9,35-17.9,36.6
	c-1.2,0.6-2.4,1.3-3.4,2.3c0-5.9,0.3-10.3,1-11.2c2.3-2.9,12.3-31.4,12.3-31.4l2.3,0.1c-0.1-0.4-0.1-0.8-0.1-1.3
	c-0.2-5.5,2.4-14,2.4-14s1.5-16.9,1.5-17.6s-1.3-12.6-1.3-12.6l2.5-9.5l4.9-3.4c0.6-7.3,2.1-16.2,5.5-18.7c1.7-1.4,3.1-3.1,4-5.1
	c0.7,0.1-0.6-0.5-0.6-0.5L464.4,246.6z"/>
<path id="svg_227" class="st4" d="M466.2,241.1c-1.8-0.6-3.7-0.4-5.4,0.6c-2.4,1.7-7.2,1.6-8.4,1.3c-1.2-0.3-14.5-2-15.5-1.6
	s-3.2-1.5-4.5,1c-1.3,2.5-2,3.9-3.4,4.5s-3.8,2.6-3.5,3.1c0.3,0.5-3.5,3-3.5,3l7.7,25c0,0-5,31.7-7.4,34.4s-24,38.3-16.3,44.7
	c6.1,4.8,12.6,9.2,19.3,13c0.9,0.4,3.9-5.3,8.1-7.1s17.3-25.6,18.2-39.1s4.5-43.6,4.5-43.6s4.5-16.5,6.1-20.9
	c1.6-4.4,1.3-14.2,1.3-14.2L466.2,241.1z"/>
<path id="svg_228" class="st11" d="M508.9,377.9l-1.8,3.8c0,0-0.3,1.1-0.6,2.9c-0.3,0-0.7-0.2-0.9-0.4c-2.6-2.1-18.2-18.1-18.9-32.2
	c-0.6-10.4-0.3-19.4-0.1-23.4c0.1-1.3,0.1-2,0.1-2.2l0,0c0,0,12-14.6,10.7-19.8c-1.3-5.2-4.5-32.9-4.5-32.9l-0.5-3.6l-0.8-6.1
	l-1.9-14.9l2,0.5c0.3,0.5,0.7,0.9,1.2,1.2l2.1,13l7.1,7.9l1.2,47.8l-3.3,8.6c0,0-2.7,0.1-6.8,0.2h-0.4L508.9,377.9z"/>
<path id="svg_229" class="st4" d="M515.6,298.9c0,0-3-1.2-3.2,0c-0.2,1.2-0.7,3.7-0.7,3.7s0.5,6.1-1.7,8.6
	c-2.2,2.5-2.6,12.7-2.6,12.7s-3.6,10.1-1.9,13.3c0.6,1.1,1.6,6.9,2.5,13.8c0.6,4.3,1.2,9.1,1.7,13.4c1,7.9,1.7,14.4,1.7,14.4
	s-1.9,7-4.5,4.9s-18.2-18.1-18.9-32.2c-0.5-10-0.3-18.6-0.1-22.8c0.1-1.8,0.1-2.8,0.1-2.8s12-14.6,10.7-19.7
	c-1.3-5.1-4.5-32.9-4.5-32.9l-0.6-4.3l-0.6-4.6l-0.1-1l-1.9-14.7l0,0c0.3,0.1,12.2,2.8,13.8,4.3s11.2,3.8,11.2,3.8
	c3,0.8,5.3,3.2,6,6.2c0.1,0.3,0.2,0.6,0.2,0.9c1.3,6.1,0.9,6.9,1.7,7.9C524.7,272.8,515.6,298.9,515.6,298.9z"/>
<path id="svg_230" class="st11" d="M509.8,364.3c-4.3-0.8-10.7-2.9-10.6-7.3c0.1-4.1,5.1-5.6,8.9-6.1
	C508.7,355.2,509.2,360,509.8,364.3z"/>
<path id="svg_231" class="st22" d="M523.2,362.1c-0.2,0.4-0.9,0.7-1.8,1c-2.3,0.6-4.6,0.9-7,1.1c0,0-14.7-1.2-14.5-7.8
	c0.1-4.8,6.8-6,10.5-6.3c1.5-0.1,2.5-0.1,2.5-0.1S523.8,360.8,523.2,362.1z"/>
<path id="svg_232" class="st11" d="M523.2,362.1c-0.2,0.4-0.9,0.7-1.8,1c-3.8-5.1-9.2-11.7-11.8-12.3c0,0,0.3-0.3,0.8-0.7
	c1.5-0.1,2.5-0.1,2.5-0.1S523.8,360.8,523.2,362.1z"/>
<path id="svg_233" class="st4" d="M519.5,271l4.3,0.6c1.6,2.7,3.3,5.4,5.2,7.9c1.2,1.4,1.8,3.2,1.9,5.1c0,0,6.3,9.4,8.3,10.5
	s5.1,8.2,5.1,8.2s5,3.3,5,7c0.1,3.1,0.4,6.1,1,9.2c0.1,0.5-0.7,7.1-2.9,10.4c-2.2,3.3-4.2,10.6-4.1,11.8s-5.9,8-7.6,10.1
	c-1.4,2-2.6,4.1-3.7,6.2l-5.6,10.6c0,0-11.8-17.4-16.2-18.4c0,0,4.9-4.6,7.3-5.5s4.8-7.8,4.9-9.4c0.1-1.6,2.2-6.9,4.4-7.8
	s3.4-1.9,2.4-3.4s0-4.3,0-4.3s-6.2-8.2-7.1-13s-6.5-7.9-6.5-7.9l-3.3-8L519.5,271z"/>
<path id="svg_234" class="st11" d="M535.2,310.4c2.4-2,5.4-3.2,8.5-3.2c-2,0.4-4.1,0.8-5.6,2.2c-0.6,0.6-1.1,1.3-1.5,2
	c-0.5,0.7-4.6,5.9-5.2,5.1C530.4,315.2,534.4,311.1,535.2,310.4z"/>
<path id="svg_235" class="st11" d="M525.6,305.4c1.3-0.1,2.5-0.9,3-2.1s0.8-2.5,0.9-3.8c0.3-2.2,0.7-4.3,1.3-6.4
	c0.1-0.4,0.2-0.9,0.2-1.3c-0.1-0.4-0.2-0.9-0.4-1.3c-0.2-0.7-0.5-1.3-0.9-1.9c-0.8,0.9-1,2.9-1.3,4c-0.4,1.4-0.8,2.9-1.1,4.3
	C527.2,297.7,525.7,305.4,525.6,305.4z"/>
<path id="svg_236" class="st11" d="M521.9,262.8c-0.4,0.6-0.9,1.1-1.5,1.5c-1.7,1.4-4,2.5-4.2,4.7c0.1,0.7,0,1.4-0.3,2.1
	c-0.6,0.9-1.9,0.9-3,0.7c-0.9-0.1-1.8-0.4-2.5-0.9c-1.1-1-1.2-2.7-2.1-3.9c-1.1-1.3-2.6-2-4.3-1.9c-1.6,0-3.2,0.3-4.8,0.4
	c-1,0.1-2.1,0-3.1-0.2c-0.3-0.1-0.7-0.1-1-0.2c-0.7-0.2-1.4-0.4-2.1-0.7c-0.3-0.1-0.7-0.3-1-0.5c-1.1-0.6-2.1-1.2-3-2.1
	c-1.6-1.5-2.9-3.5-2.8-5.6c0.2-1.3,0.5-2.6,0.9-3.8c0.6-3.7-1.8-7.3-4.5-9.9c-1.1-1-2.2-2.1-3.3-3.2c-1.7-1.5-3-3.4-3.9-5.5
	c-0.7-2.2-0.9-4.6-0.7-6.9c0.2-2.4,0.3-4.7,0.2-7.1c-0.8-8.4-8-14.8-15.1-18.3l-0.3-0.2c8.5-9.5,23-10.3,32.5-1.9
	c9.5,8.5,10.3,23,1.9,32.5c-1,1.1-2.1,2.2-3.3,3.1c-0.1,0.3-0.1,0.5-0.2,0.8c-1.7,6.6-0.6,10.7,0.7,12.9l0,0
	c0.3,0.1,12.2,2.8,13.8,4.3s11.2,3.8,11.2,3.8C518.9,257.5,521.2,259.8,521.9,262.8z"/>
<path id="svg_237" class="st2" d="M457.9,195c0.5-0.5,1.2-0.8,1.7-1.4c1.5-1.6,0-4.3,0.6-6.4c0.6-2.4,3.5-3.4,5.9-3.2
	s4.7,1.4,7.1,1.6c3.8,0.4,7.4-1.2,11.1-2.2s8.1-1,10.7,1.8c2.6,2.8,2.4,7.6,5.5,9.7c1.5,0.9,3.3,1,4.9,1.8c1.7,0.9,3.2,2.3,4.1,3.9
	c2.5,3.9,3.6,8.6,3.1,13.2c-0.3,2.5-1,4.9-1.3,7.4c-0.3,2.6-0.1,5.2,0.5,7.8c0.7,2.6,2.1,5.4,4.7,6.2c0.6,0.1,1.2,0.3,1.8,0.6
	c1.5,0.9,1.3,3.1,0.9,4.8l-1.6,7.1c1.5,1.1,3.8,0.6,5.2,1.8c0.6,0.5,1,1.2,1.2,1.9c1.4,4.1,0.2,8.6-3.1,11.3c-1.7,1.4-4,2.5-4.2,4.7
	c0.1,0.7,0,1.4-0.3,2.1c-0.6,0.9-1.9,0.9-3,0.7c-0.9-0.1-1.8-0.4-2.5-0.9c-1.1-1-1.2-2.7-2.1-3.9c-1.1-1.3-2.6-2-4.3-1.9
	c-1.6,0-3.2,0.3-4.9,0.4c-3.8,0.2-7.4-1.2-10.2-3.7c-1.7-1.4-2.7-3.4-2.8-5.6c0.2-1.3,0.5-2.6,0.9-3.9c0.6-3.7-1.8-7.3-4.5-9.9
	c-2.7-2.6-5.8-5.1-7.1-8.7c-1.6-4.4,0-9.3-0.5-14c-0.8-8.4-8-14.8-15.1-18.3C458.8,199.3,456.1,197.2,457.9,195z"/>
<path id="svg_238" class="st11" d="M514.4,267.6c-1.1-1-1.2-2.7-2.1-3.9c-1.1-1.3-2.6-2-4.3-1.9c-1.6,0-3.2,0.3-4.8,0.4
	c-3.7,0.2-7.4-1.1-10.2-3.6c-1.6-1.5-2.9-3.5-2.8-5.6c0.2-1.3,0.5-2.6,0.9-3.8c0.6-3.7-1.8-7.3-4.5-9.9c-2.7-2.6-5.8-5.1-7.1-8.7
	c-1.6-4.4,0-9.3-0.5-14c-0.8-8.4-8-14.8-15.1-18.3c-1.7-0.8-4.4-2.9-2.5-5c0.5-0.5,1.2-0.8,1.7-1.3c1.5-1.6,0-4.3,0.6-6.4
	c0.1-0.4,0.3-0.8,0.5-1.2c-1.8,0.2-3.3,1.4-3.9,3.1c-0.5,2.1,0.9,4.8-0.6,6.4c-0.5,0.5-1.2,0.8-1.7,1.3c-1.9,2.1,0.9,4.2,2.5,5
	c7.2,3.5,14.3,9.9,15.1,18.3c0.4,4.7-1.1,9.6,0.5,14c1.3,3.5,4.5,6,7.1,8.7s5.2,6.2,4.5,9.9c-0.4,1.3-0.7,2.5-0.9,3.8
	c-0.1,2.1,1.2,4.1,2.8,5.6c2.8,2.5,6.5,3.9,10.2,3.7c1.6-0.1,3.2-0.4,4.9-0.4c1.6-0.1,3.2,0.7,4.3,1.9c0.9,1.2,1,3,2.1,3.9
	c0.7,0.5,1.6,0.8,2.5,0.9c1.1,0.2,2.4,0.3,3-0.7c0.2-0.4,0.3-0.8,0.2-1.2C515.9,268.4,515.1,268.1,514.4,267.6z"/>
<image style="overflow:visible;enable-background:new    ;" width="304" height="215" xlink:href="ads/db.png"  transform="matrix(0.9188 0 0 0.8878 35.2144 113.7843)">
</image>
<image style="overflow:visible;enable-background:new    ;" width="304" height="215" xlink:href="ads/patrika.png"  transform="matrix(0.9212 0 0 0.9212 593.8795 87.1554)">
</image>
<path id="svg_180" class="st10" d="M829.5,345.1c0.1,1.8,1.6,3.2,3.4,3.2c0.1,0,0.2,0,0.3,0c6.4,0.1,13.1,0.2,19-2.5
	c1.1-0.4,2.1-1.1,2.8-2c1-1.3,1.1-3.1,1.5-4.7c0.7-3.2,2.4-6,3.5-9.1c1.9-5.1,2.4-10.7,1.4-16.1c-0.2-1.7-0.8-3.2-1.8-4.6
	c-1.8-2.4-4.9-3.2-7.3-5.1s-3.9-4.8-6.6-6.1c-2.4-1.2-5.3-1-8-0.4c-5.2,1.1-10.2,3.2-14.6,6.1c-1.5,1-3.1,2.1-4.9,1.9
	c-1.5-0.2-2.7-1.5-3.8-2.6c-1.1,2.9-1.6,6.1-1.2,9.2c0.1,0.5,0.1,0.9,0,1.4c-0.2,0.6-0.5,1.1-0.9,1.5c-1.5,1.9-2.4,4.9-0.8,6.6
	c0.7,0.8,1.8,1.2,2.5,2c1.2,1.4,0.9,3.6,1,5.5c0,0.7,0.1,1.3,0.5,1.9c0.7,0.6,1.7,0.8,2.6,0.5c0.9-0.3,1.8-0.4,2.8-0.4
	c1,0.3,1.9,0.9,2.5,1.8C826.8,336.5,828.1,340.6,829.5,345.1z"/>
</svg>
